<svg xmlns="http://www.w3.org/2000/svg" viewBox="0 0 100 125" xml:space="preserve">
  <path d="M54.857 38.588c-1.588.606-1.217 1.854-.556 4.168.67 2.306.756 4.517-.909 6.178-.327.291-.645.577-.953.88-.022.02-.033.02-.055.035-1.763 1.588-3.967 1.375-6.24.582-2.273-.799-3.499-1.239-4.192.311-.692 1.54-.227.494-1.338 2.988a.835.835 0 0 0-.033.072c-1.118 2.492-.653 1.448-1.337 2.983-.694 1.553.449 2.175 2.559 3.341 2.09 1.154 3.7 2.644 3.717 4.967-.028.437-.04.877-.041 1.317-.004.035-.021.052-.021.089-.119 2.367-1.831 3.776-4.002 4.822-2.17 1.043-3.352 1.601-2.744 3.186l1.168 3.059a.38.38 0 0 0 .026.071c.97 2.559.564 1.486 1.165 3.055.607 1.593 1.856 1.224 4.171.556 2.304-.665 4.507-.752 6.172.904.288.329.575.652.885.96.02.023.018.04.04.062 1.577 1.756 1.372 3.967.575 6.233-.796 2.276-1.233 3.5.31 4.196 1.543.685.497.218 2.991 1.341.018.008.027.014.045.023a.23.23 0 0 1 .025.008c2.492 1.117 1.448.644 2.989 1.337 1.549.688 2.169-.452 3.337-2.562 1.152-2.093 2.653-3.713 4.989-3.721.424.027.852.043 1.276.039.046.006.062.027.111.027 2.358.124 3.774 1.835 4.816 4.002 1.045 2.169 1.601 3.348 3.188 2.746 1.572-.604.506-.196 3.061-1.17.016-.004.025-.008.041-.014.012-.004.02-.006.028-.012 2.553-.974 1.485-.573 3.061-1.168 1.585-.604 1.22-1.854.55-4.17-.671-2.312-.758-4.53.928-6.192.315-.283.629-.562.927-.858.023-.025.041-.02.069-.045 1.757-1.58 3.965-1.37 6.239-.575 2.272.794 3.498 1.234 4.19-.314.686-1.538.22-.49 1.345-2.985.006-.018.01-.031.016-.044.006-.011.008-.021.012-.026 1.115-2.497.644-1.451 1.335-2.991.69-1.549-.448-2.171-2.559-3.338-2.101-1.158-3.725-2.658-3.723-5.006.025-.418.039-.832.039-1.252.006-.046.025-.067.027-.117.124-2.362 1.833-3.771 4.005-4.813 2.164-1.05 3.345-1.605 2.745-3.191-.603-1.572-.198-.504-1.168-3.062l-.018-.043a.062.062 0 0 0-.012-.026c-.977-2.555-.569-1.481-1.167-3.062-.606-1.582-1.854-1.215-4.173-.548-2.311.673-4.534.755-6.187-.928l-.007-.002c-.282-.315-.559-.626-.854-.922-.021-.024-.021-.044-.043-.07-1.584-1.755-1.374-3.964-.577-6.238.795-2.274 1.232-3.497-.312-4.192l-2.987-1.342c-.022-.006-.038-.014-.062-.024 0-.005-.004-.004-.008-.004-2.497-1.122-1.454-.646-2.991-1.337-1.551-.694-2.173.45-3.338 2.557-1.152 2.098-2.656 3.722-5.002 3.722-.417-.026-.84-.038-1.266-.037-.044-.006-.058-.026-.104-.027-2.368-.123-3.78-1.83-4.823-4.003-1.044-2.173-1.602-3.343-3.186-2.744-1.592.609-.469.181-3.131 1.196-2.547.971-1.479.566-3.054 1.162zm25.139 23.759c2.316 6.065-.728 12.857-6.793 15.17-6.061 2.312-12.854-.729-15.166-6.791-2.315-6.066.727-12.859 6.789-15.172 6.066-2.312 12.859.727 15.17 6.793z"/>
  <!-- <text y="115" font-size="5" font-weight="bold" font-family="'Helvetica Neue', Helvetica, Arial-Unicode, Arial, Sans-serif">Created by Reed Enger</text>
  <text y="120" font-size="5" font-weight="bold" font-family="'Helvetica Neue', Helvetica, Arial-Unicode, Arial, Sans-serif">from the Noun Project</text> -->
</svg>
