<svg xmlns="http://www.w3.org/2000/svg" viewBox="0 0 100 125" xml:space="preserve">
  <path d="M21.414 1.78c-1.421.159-1.383 1.251-1.331 3.279.054 2.021-.342 3.841-2.051 4.843-.325.167-.648.333-.964.516-.019.009-.03.008-.051.017-1.769.922-3.522.286-5.208-.847-1.685-1.131-2.59-1.749-3.484-.631-.886 1.108-.284.356-1.723 2.151l-.04.051c-1.44 1.799-.835 1.048-1.721 2.152-.895 1.119-.092 1.867 1.379 3.263 1.458 1.38 2.455 2.937 1.983 4.834-.118.35-.219.706-.314 1.065-.008.029-.025.037-.036.07-.598 1.902-2.292 2.689-4.281 3.082-1.992.391-3.067.593-2.909 2.017.156 1.408.048.451.303 2.739.003.023.004.037.009.066.254 2.287.146 1.329.302 2.737.158 1.423 1.253 1.383 3.281 1.332 2.016-.055 3.833.341 4.838 2.046.165.324.335.652.52.966.007.024.004.036.017.057.918 1.765.28 3.523-.848 5.203-1.129 1.688-1.746 2.591-.635 3.487 1.115.884.36.283 2.153 1.724.014.009.02.017.034.027.006.004.01.008.015.014 1.798 1.436 1.047.831 2.159 1.718 1.116.892 1.867.095 3.26-1.378 1.381-1.464 2.948-2.467 4.852-1.977.341.11.687.211 1.036.302.036.014.046.033.083.044 1.897.597 2.689 2.292 3.077 4.28.398 1.99.6 3.063 2.021 2.911 1.411-.161.452-.052 2.741-.302.016 0 .022-.002.038-.004.009 0 .014 0 .025-.002 2.288-.258 1.327-.156 2.74-.31 1.419-.16 1.388-1.254 1.33-3.28-.057-2.028.342-3.854 2.064-4.852.319-.163.633-.325.939-.504.023-.011.038-.006.062-.021 1.769-.917 3.524-.279 5.207.85 1.688 1.128 2.59 1.744 3.484.633.884-1.111.284-.358 1.723-2.154.013-.013.016-.02.029-.032.005-.007.005-.012.013-.017 1.437-1.799.832-1.05 1.722-2.156.889-1.116.092-1.864-1.379-3.262-1.468-1.387-2.476-2.954-1.976-4.867.107-.334.205-.672.295-1.013.014-.037.034-.047.046-.092.599-1.896 2.293-2.686 4.28-3.077 1.989-.396 3.067-.598 2.912-2.017-.159-1.411-.054-.454-.302-2.742-.004-.015-.002-.024-.004-.04 0-.01-.002-.015-.004-.024-.256-2.29-.152-1.328-.309-2.741-.157-1.421-1.25-1.384-3.28-1.329-2.029.056-3.854-.343-4.852-2.067-.002-.001-.002-.001-.002-.003-.165-.315-.323-.628-.5-.933-.01-.023-.008-.039-.022-.064-.916-1.768-.282-3.523.85-5.208 1.126-1.686 1.746-2.589.632-3.485-1.11-.885-.358-.283-2.151-1.721-.019-.014-.026-.022-.044-.033 0-.005-.004-.003-.007-.008-1.796-1.438-1.048-.834-2.157-1.719-1.116-.894-1.862-.095-3.262 1.377-1.383 1.468-2.95 2.469-4.859 1.973a24.76 24.76 0 0 0-1.022-.296c-.036-.014-.047-.033-.086-.044-1.901-.6-2.691-2.292-3.081-4.283-.391-1.991-.596-3.064-2.016-2.909l-2.802.312c-2.288.255-1.33.151-2.741.306zm15.467 24.679c.602 5.431-3.314 10.323-8.743 10.926-5.431.603-10.325-3.312-10.927-8.741-.602-5.436 3.312-10.326 8.742-10.928 5.433-.605 10.323 3.308 10.928 8.743z"/>
</svg>
